<svg version="1.0" width="128px" height="128px" viewBox="0 0 128 128" preserveAspectRatio="xMidYMid meet" xmlns="http://www.w3.org/2000/svg">
  <defs></defs>
  <path d="M 57.06 55.998 C 56.644 55.886 55.304 55.886 54.259 56.008 C 53.873 56.048 52.108 56.089 50.352 56.089 C 46.365 56.089 42.864 56.252 42.397 56.444 C 41.961 56.627 41.778 57.113 41.86 57.904 C 41.941 58.655 42.519 59.821 43.057 60.298 C 43.291 60.522 44.193 61.029 45.188 61.506 C 46.771 62.277 46.903 62.358 46.903 62.611 C 46.903 62.763 46.973 63.199 47.055 63.585 C 47.502 65.725 48.911 68.524 49.987 69.417 C 50.637 69.954 50.759 70.178 50.87 71.03 C 51.368 74.711 53.894 80.056 60.52 91.376 C 61.443 92.968 61.757 93.577 61.859 94.064 C 61.93 94.409 62.042 94.794 62.103 94.916 C 62.366 95.393 62.255 95.808 61.717 96.427 C 61.352 96.843 61.149 97.188 61.007 97.665 C 60.895 98.02 60.804 98.354 60.804 98.405 C 60.804 98.456 60.469 99.196 60.053 100.058 C 57.892 104.561 56.045 106.701 53.062 108.172 C 51.814 108.781 49.937 109.41 48.963 109.552 C 48.242 109.643 48.131 109.694 47.775 110.049 C 47.309 110.525 47.187 111.022 47.319 111.976 C 47.512 113.325 48.131 114.42 48.709 114.42 C 49.095 114.42 52.28 115.008 53.234 115.252 C 54.158 115.485 54.706 115.455 55.761 115.08 C 57.749 114.39 60.084 112.209 61.19 109.988 C 61.575 109.227 61.92 108.051 61.849 107.716 C 61.757 107.219 63.27 103.496 64.812 100.423 C 65.634 98.8 65.776 98.435 65.877 97.735 C 66.04 96.66 66.263 96.052 66.872 95.017 C 67.461 94.002 67.531 93.831 67.795 92.411 C 67.998 91.305 68.048 91.173 69.683 87.542 C 71.377 83.769 72.036 81.862 72.158 80.34 C 72.229 79.438 72.28 79.276 72.95 77.795 C 74.056 75.36 74.157 75.097 74.401 73.9 C 74.716 72.338 74.837 72.023 75.578 70.918 C 76.146 70.066 76.227 69.883 76.227 69.457 C 76.227 68.94 76.501 68.311 77.495 66.597 C 77.79 66.09 78.196 65.238 78.409 64.711 C 79.221 62.641 79.972 61.587 80.986 61.079 C 81.666 60.735 82.367 60.511 84.436 59.954 C 86.344 59.436 86.993 59.203 87.389 58.868 C 87.674 58.635 87.694 58.574 87.694 57.895 C 87.694 57.337 87.642 57.084 87.49 56.83 C 87.013 56.048 86.07 55.947 80.439 56.109 C 76.998 56.201 75.679 56.201 74.198 56.099 C 70.464 55.856 70.22 55.856 69.693 56.089 C 69.287 56.262 69.186 56.373 68.962 56.85 C 68.637 57.56 68.617 58.341 68.891 58.726 C 69.216 59.152 69.976 59.507 71.499 59.913 C 74.208 60.623 74.573 61.019 74.309 62.915 C 74.056 64.63 73.214 67.52 72.118 70.431 C 71.296 72.612 70.91 73.474 70.15 74.762 C 69.155 76.436 69.216 76.304 68.363 79.235 C 67.186 83.261 66.669 84.58 65.908 85.422 C 65.441 85.939 65.086 86.122 64.559 86.122 C 63.797 86.122 63.402 85.787 62.062 83.992 C 61.26 82.927 61.118 82.613 60.084 79.59 C 59.698 78.484 59.221 77.297 59.028 76.953 C 58.368 75.807 58.064 75.117 57.851 74.255 C 57.597 73.23 57.202 72.409 55.913 70.279 C 55.376 69.407 54.797 68.351 54.625 67.936 C 53.975 66.364 53.396 63.423 53.559 62.52 C 53.701 61.718 54.218 61.019 54.919 60.664 C 55.112 60.572 55.639 60.369 56.086 60.217 C 57.719 59.68 58.003 59.284 57.943 57.621 C 57.912 56.728 57.881 56.596 57.669 56.363 C 57.526 56.221 57.252 56.059 57.06 55.998 Z M 108.819 54.913 C 108.262 54.771 104.537 54.649 103.573 54.74 C 100.743 55.014 98.317 55.43 97.059 55.846 C 95.009 56.536 93.122 57.844 91.083 59.984 C 90.23 60.877 90.027 61.16 89.612 62.033 C 88.394 64.589 88.261 66.14 89.073 68.575 C 90.707 73.504 93.731 75.888 100.042 77.196 C 102.316 77.673 106.292 78.312 106.942 78.312 C 107.266 78.312 107.785 78.383 108.088 78.474 C 108.393 78.555 109.286 78.778 110.068 78.971 C 113 79.671 114.816 80.463 115.679 81.405 C 116.439 82.237 116.481 82.531 116.054 84.124 C 115.861 84.834 115.699 85.574 115.699 85.757 C 115.699 86.517 114.299 88.09 112.685 89.134 C 110.677 90.443 108.363 91.234 105.735 91.508 C 104.142 91.67 103.248 91.518 100.763 90.686 C 96.795 89.357 94.827 88.242 93.446 86.558 C 92.696 85.625 92.503 85.209 92.219 83.84 C 91.874 82.237 91.762 82.054 90.941 81.842 C 89.753 81.537 88.302 81.639 87.419 82.106 C 87.175 82.227 87.065 82.38 86.983 82.694 C 86.912 82.917 86.892 83.2 86.922 83.323 C 86.963 83.445 87.034 84.672 87.085 86.072 C 87.247 90.362 87.48 93.435 87.734 94.398 C 87.846 94.865 87.886 94.905 88.363 95.088 C 89.103 95.362 90.504 95.423 90.981 95.2 C 91.478 94.966 91.975 94.337 92.402 93.415 C 92.879 92.39 93.021 92.269 93.721 92.33 C 94.38 92.38 95.395 92.856 98.043 94.337 C 99.058 94.896 100.001 95.413 100.154 95.463 C 100.306 95.524 101.392 95.798 102.559 96.082 C 105.308 96.741 105.41 96.731 109.256 95.768 C 112.605 94.926 113.092 94.713 115.04 93.252 C 118.347 90.777 120.194 88.191 120.823 85.169 C 121.026 84.155 121.036 82.156 120.823 80.98 C 120.377 78.403 119.89 77.46 117.688 74.884 C 116.287 73.251 115.994 72.967 115.648 72.865 C 115.425 72.805 114.695 72.591 114.024 72.389 C 112.106 71.821 110.24 71.517 108.637 71.517 C 107.378 71.517 107.226 71.496 106.769 71.263 C 106.282 71.019 106.212 71.009 104.101 71.009 C 101.991 71.009 101.919 70.999 101.432 70.756 C 101.158 70.614 100.346 70.391 99.616 70.238 C 97.566 69.832 96.663 69.326 95.903 68.139 C 94.695 66.272 94.959 63.646 96.511 62.134 C 97.526 61.14 98.723 60.572 101.352 59.842 L 102.833 59.426 L 104.913 59.639 C 108.596 60.014 109.803 60.349 112.594 61.738 C 114.796 62.844 115.475 63.27 115.882 63.787 C 116.328 64.366 116.348 64.416 116.409 65.279 L 116.46 66.09 L 117.018 66.08 C 117.555 66.07 119.058 65.634 119.321 65.41 C 119.413 65.34 119.453 64.974 119.453 64.254 C 119.453 63.423 119.504 63.047 119.707 62.418 C 119.94 61.688 119.96 61.475 119.96 59.629 C 119.96 58.057 119.92 57.439 119.758 56.657 C 119.463 55.187 119.473 55.187 117.637 55.187 L 116.156 55.187 L 115.851 55.643 C 115.485 56.191 114.978 56.566 114.471 56.657 C 114.228 56.698 113.619 56.627 112.746 56.455 C 111.529 56.211 111.285 56.12 110.392 55.623 C 109.844 55.308 109.134 54.994 108.819 54.913 Z M 27.451 54.913 C 26.872 54.771 23.23 54.649 22.144 54.74 C 19.709 54.953 16.735 55.46 15.619 55.866 C 13.479 56.627 11.825 57.773 9.765 59.923 C 8.781 60.947 8.558 61.241 8.212 61.982 C 7.005 64.569 6.873 66.171 7.644 68.504 C 8.334 70.573 9.197 72.054 10.455 73.362 C 11.957 74.914 13.945 75.989 16.685 76.73 C 18.705 77.288 23.727 78.18 25.543 78.312 C 26.193 78.362 26.893 78.484 27.218 78.596 C 27.522 78.708 28.232 78.9 28.79 79.022 C 32.241 79.782 34.463 80.989 34.858 82.328 C 34.99 82.795 34.98 82.876 34.605 84.296 C 34.391 85.108 34.219 85.879 34.219 86.02 C 34.219 86.345 33.357 87.492 32.666 88.099 C 30.11 90.362 25.594 91.863 22.439 91.508 C 21.434 91.396 18.126 90.351 16.37 89.591 C 14.514 88.779 12.961 87.694 12.007 86.508 C 11.297 85.645 11.114 85.229 10.821 83.84 C 10.496 82.308 10.404 82.126 9.795 81.913 C 9.055 81.659 7.614 81.598 6.843 81.801 C 5.574 82.126 5.422 82.389 5.584 83.971 C 5.656 84.57 5.706 85.605 5.706 86.274 C 5.706 88.465 6.112 93.627 6.346 94.439 C 6.468 94.855 6.518 94.905 6.975 95.078 C 7.258 95.189 7.877 95.301 8.364 95.321 C 9.176 95.372 9.278 95.362 9.694 95.119 C 10.181 94.835 10.729 94.094 11.094 93.252 C 11.713 91.802 12.261 91.903 16.492 94.256 L 18.745 95.504 L 20.977 96.042 C 23.747 96.711 24.174 96.711 26.659 96.062 C 27.553 95.829 28.74 95.524 29.298 95.402 C 30.718 95.078 31.337 94.814 32.413 94.114 C 35.508 92.096 37.74 89.682 38.786 87.218 C 39.77 84.915 39.861 82.106 39.049 79.317 C 38.633 77.896 38.034 76.942 36.259 74.854 L 34.656 72.977 L 33.499 72.643 C 30.587 71.78 29.095 71.517 27.177 71.517 C 25.96 71.517 25.807 71.496 25.351 71.263 C 24.864 71.019 24.793 71.009 22.651 71.009 C 20.49 71.009 20.439 71.009 19.962 70.756 C 19.689 70.603 18.897 70.37 18.076 70.208 C 16.442 69.863 15.691 69.508 14.98 68.758 C 13.194 66.85 13.398 63.473 15.396 61.84 C 16.391 61.019 17.731 60.441 20.136 59.791 L 21.465 59.436 L 23.503 59.639 C 25.848 59.873 27.289 60.147 28.577 60.572 C 29.521 60.886 32.839 62.51 33.58 63.007 C 34.666 63.757 35.092 64.497 34.99 65.43 C 34.919 66.07 34.97 66.14 35.528 66.14 C 35.894 66.14 37.203 65.776 37.659 65.542 L 38.024 65.349 L 38.034 64.254 C 38.045 63.342 38.095 63.017 38.319 62.398 C 38.572 61.688 38.582 61.536 38.582 59.71 C 38.582 58.199 38.542 57.54 38.379 56.718 C 38.085 55.176 38.105 55.187 36.249 55.187 L 34.756 55.187 L 34.412 55.693 C 34.057 56.221 33.295 56.708 32.85 56.708 C 32.728 56.708 32.038 56.586 31.317 56.444 C 30.15 56.211 29.896 56.12 29.024 55.623 C 28.486 55.318 27.776 55.004 27.451 54.913 Z M 48.019 31.199 C 47.522 30.945 46.578 31.017 45.33 31.412 C 44.224 31.757 43.818 31.838 41.931 32.061 C 40.195 32.264 40.094 32.284 39.8 32.538 C 39.384 32.882 39.252 33.349 39.394 34.029 C 39.496 34.536 39.688 34.82 40.105 35.063 C 40.185 35.114 40.804 35.185 41.474 35.215 C 42.143 35.246 42.986 35.347 43.351 35.449 C 44.812 35.834 44.894 35.936 44.558 36.889 C 44.336 37.518 44.336 37.568 44.478 38.329 C 44.63 39.141 44.65 40.277 44.568 42.356 C 44.538 43.026 44.558 44.303 44.61 45.206 C 44.711 46.961 44.69 47.062 44.173 47.61 C 43.909 47.894 43.909 47.894 42.945 47.833 C 41.332 47.722 40.063 48.066 39.81 48.685 C 39.435 49.578 39.881 50.846 40.734 51.291 C 41.089 51.475 41.119 51.475 44.762 51.291 C 46.903 51.18 47.958 51.16 48.212 51.231 C 48.414 51.282 49.085 51.332 49.713 51.332 C 50.332 51.332 51.205 51.403 51.641 51.484 C 53.103 51.768 53.63 51.646 53.965 50.957 C 54.229 50.389 54.218 49.284 53.925 48.725 C 53.61 48.127 53.265 47.975 51.885 47.864 C 50.282 47.731 50.089 47.731 49.378 47.823 C 48.81 47.904 48.749 47.884 48.466 47.65 C 48.181 47.407 48.171 47.356 48.191 46.646 C 48.201 46.241 48.201 44.262 48.201 42.255 L 48.201 38.603 L 48.891 38.147 C 49.277 37.893 49.927 37.447 50.332 37.152 C 52.057 35.925 52.362 35.925 53.853 37.173 C 54.949 38.096 55.406 38.35 56.076 38.421 C 56.847 38.502 57.415 38.269 57.993 37.65 C 58.582 37.021 58.825 36.544 59.018 35.581 C 59.262 34.424 59.232 34.039 58.835 33.207 C 58.43 32.375 58.176 32.152 56.897 31.534 C 56.045 31.128 55.933 31.098 55.172 31.107 C 54.178 31.118 52.737 31.534 52.139 31.959 C 51.915 32.132 51.652 32.264 51.55 32.264 C 51.448 32.264 51.368 32.334 51.368 32.426 C 51.368 32.579 51.043 32.984 50.302 33.785 C 49.927 34.191 48.81 34.81 48.526 34.779 C 48.191 34.739 48.161 34.444 48.374 33.177 C 48.577 31.959 48.486 31.442 48.019 31.199 Z M 87.308 31.047 C 86.821 30.915 86.79 30.915 85.664 31.27 C 85.167 31.422 84.558 31.493 83.229 31.543 C 81.616 31.615 81.403 31.645 80.946 31.869 C 80.265 32.213 80.165 32.436 80.225 33.37 C 80.286 34.12 80.59 34.982 80.834 35.053 C 80.895 35.073 81.646 35.134 82.488 35.185 C 83.797 35.276 84.091 35.327 84.395 35.509 C 84.913 35.824 84.984 36.017 84.852 36.696 C 84.802 37.011 84.75 38.066 84.75 39.039 C 84.75 40.155 84.69 41.21 84.588 41.889 C 84.467 42.7 84.436 43.36 84.487 44.536 C 84.558 46.444 84.487 46.869 84.03 47.346 C 83.543 47.853 83.421 47.894 82.305 47.995 C 80.631 48.138 80.317 48.472 80.418 49.983 C 80.519 51.434 80.631 51.495 82.66 51.312 C 84.467 51.149 87.338 51.149 89.093 51.322 C 90.879 51.495 91.387 51.423 91.854 50.936 C 92.422 50.349 92.635 49.314 92.32 48.715 C 92.016 48.127 91.793 48.026 90.342 47.843 C 89.601 47.752 88.8 47.599 88.576 47.498 L 88.171 47.326 L 88.191 45.297 C 88.201 44.181 88.15 42.853 88.089 42.356 C 87.947 41.301 87.957 39.759 88.109 38.979 C 88.171 38.664 88.343 38.278 88.536 38.025 C 88.992 37.426 90.554 36.26 91.174 36.057 C 91.478 35.956 91.884 35.712 92.148 35.459 C 92.472 35.154 92.797 34.972 93.203 34.851 C 94.674 34.424 97.009 34.485 97.841 34.972 C 98.48 35.347 99.789 36.595 99.991 37.021 C 100.194 37.447 100.245 38.948 100.063 39.282 C 100.001 39.404 99.931 40.003 99.911 40.621 C 99.869 41.961 99.677 45.592 99.606 46.322 C 99.514 47.295 99.058 47.681 97.983 47.681 C 96.856 47.681 96.014 48.046 95.608 48.715 C 95.436 48.999 95.436 49.05 95.618 49.882 C 95.831 50.866 95.913 50.987 96.47 51.241 C 97.009 51.495 97.83 51.484 99.372 51.221 C 100.276 51.068 100.803 51.028 101.24 51.079 C 101.574 51.12 102.985 51.16 104.365 51.17 C 106.668 51.19 106.912 51.18 107.124 51.018 C 107.551 50.683 107.733 49.253 107.439 48.543 C 107.216 48.005 106.851 47.833 105.907 47.813 C 105.461 47.803 104.893 47.792 104.649 47.792 C 104.274 47.783 104.162 47.722 103.867 47.407 L 103.523 47.032 L 103.523 45.511 C 103.533 44.668 103.563 43.796 103.614 43.573 C 103.655 43.35 103.645 42.782 103.594 42.305 C 103.533 41.828 103.482 40.936 103.482 40.327 C 103.472 38.999 103.573 38.705 104.527 37.518 C 105.004 36.909 105.278 36.655 105.735 36.433 C 106.059 36.271 106.384 36.057 106.465 35.966 C 106.536 35.875 106.922 35.621 107.318 35.388 C 107.713 35.165 108.18 34.84 108.352 34.678 L 108.657 34.394 L 109.266 34.536 C 109.591 34.617 110.433 34.759 111.132 34.851 C 113.426 35.134 113.882 35.357 114.421 36.433 C 114.623 36.828 114.786 37.244 114.786 37.345 C 114.786 37.437 114.857 37.589 114.938 37.67 C 115.03 37.761 115.12 38.208 115.192 38.867 C 115.252 39.445 115.334 40.145 115.374 40.429 C 115.435 40.784 115.415 41.068 115.303 41.392 C 115.192 41.737 115.151 42.427 115.151 44.242 C 115.141 45.866 115.1 46.677 115.03 46.778 C 114.958 46.859 114.877 47.113 114.836 47.346 C 114.796 47.59 114.725 47.803 114.674 47.843 C 114.623 47.873 113.964 48.005 113.213 48.127 C 111.589 48.401 111.407 48.513 111.224 49.385 C 111.062 50.186 111.154 50.815 111.478 51.099 C 111.843 51.414 112.513 51.484 113.182 51.302 C 113.619 51.17 114.187 51.149 116.105 51.18 C 117.413 51.201 118.986 51.271 119.595 51.332 C 120.681 51.454 121.665 51.414 122.142 51.231 C 122.477 51.099 122.7 50.622 122.7 50.044 C 122.7 49.547 122.437 48.837 122.183 48.634 C 122.102 48.563 121.321 48.228 120.437 47.884 C 118.652 47.174 118.469 47.032 118.581 46.392 C 118.621 46.18 118.692 44.293 118.743 42.204 C 118.814 39.039 118.804 38.228 118.682 37.386 C 118.439 35.732 118.276 35.226 117.728 34.424 C 117.445 34.029 117.221 33.644 117.221 33.562 C 117.211 33.491 116.693 33.055 116.064 32.599 C 114.725 31.624 114.126 31.392 112.452 31.188 C 109.367 30.824 107.886 31.168 106.272 32.619 C 105.542 33.289 104.324 34.292 103.797 34.668 C 103.238 35.073 103.106 35.002 102.254 33.846 C 101.605 32.963 101.382 32.741 100.895 32.487 C 100.58 32.314 100.214 32.061 100.073 31.909 C 99.555 31.351 97.496 30.996 95.182 31.067 C 93.954 31.107 93.761 31.138 93.021 31.432 C 91.793 31.919 90.586 32.71 89.723 33.583 C 89.307 34.008 88.87 34.485 88.748 34.647 C 88.586 34.88 88.495 34.921 88.282 34.871 C 87.927 34.779 87.886 34.617 87.998 33.755 C 88.049 33.359 88.099 32.72 88.099 32.355 C 88.099 31.554 87.896 31.209 87.308 31.047 Z M 70.291 30.935 C 69.561 30.783 67.318 30.844 66.385 31.037 C 64.172 31.503 62.691 32.436 61.21 34.272 C 60.388 35.296 60.053 35.925 59.83 36.879 C 59.739 37.264 59.576 37.954 59.475 38.4 C 59.363 38.846 59.252 39.689 59.211 40.277 C 59.14 41.595 59.332 44.039 59.546 44.455 C 59.627 44.617 59.719 44.912 59.749 45.105 C 59.901 46.311 62.082 49.253 63.483 50.136 C 63.767 50.308 64.254 50.653 64.559 50.886 C 65.482 51.596 66.09 51.738 68.607 51.86 C 70.992 51.961 71.722 51.9 72.91 51.484 C 73.904 51.14 74.948 50.511 76.421 49.385 C 77.12 48.837 77.872 48.3 78.074 48.188 C 78.531 47.945 78.602 47.803 79.201 46.058 C 80.479 42.325 80.185 38.918 78.297 35.469 C 77.942 34.83 77.577 34.343 76.988 33.765 C 75.355 32.132 74.705 31.858 70.291 30.935 Z M 13.499 22.283 C 10.749 22.263 8.111 22.222 7.634 22.182 C 6.873 22.121 6.731 22.132 6.457 22.303 C 6.011 22.588 5.879 22.993 5.929 23.927 C 6.011 25.265 6.153 25.346 8.527 25.438 C 10.059 25.498 10.09 25.498 10.252 25.762 C 10.404 25.986 10.424 26.411 10.455 29.069 C 10.465 30.743 10.486 32.365 10.486 32.669 C 10.496 33.623 10.312 36.565 10.232 36.747 C 10.191 36.848 10.14 39.424 10.13 42.478 C 10.12 45.531 10.079 48.117 10.029 48.208 C 9.957 48.37 9.755 48.391 7.989 48.391 C 6.913 48.391 5.949 48.421 5.859 48.452 C 5.504 48.594 5.3 49.243 5.3 50.257 C 5.3 51.718 5.28 51.707 9.136 51.475 C 12.839 51.261 15.437 51.352 17.568 51.789 C 18.176 51.911 18.441 51.931 18.522 51.85 C 18.583 51.789 18.978 51.738 19.405 51.738 C 20.094 51.738 20.206 51.707 20.409 51.495 C 21.068 50.785 20.754 49.435 19.8 48.898 C 19.374 48.655 19.272 48.644 17 48.594 C 14.037 48.533 14.118 48.574 13.996 47.163 C 13.955 46.637 13.935 44.922 13.945 43.34 L 13.986 40.48 L 14.26 40.216 C 14.412 40.084 14.534 39.922 14.534 39.871 C 14.534 39.82 14.717 39.678 14.94 39.567 C 15.174 39.445 15.528 39.201 15.731 39.019 C 15.934 38.826 16.492 38.482 16.949 38.238 C 17.416 37.995 18.126 37.518 18.532 37.173 C 19.394 36.433 19.597 36.321 20.003 36.321 C 20.429 36.321 20.906 36.767 21.657 37.853 C 21.992 38.35 22.449 38.898 22.672 39.069 C 22.885 39.242 23.331 39.739 23.656 40.165 C 23.98 40.591 24.599 41.26 25.016 41.656 C 25.431 42.051 25.868 42.549 25.98 42.772 C 26.092 42.985 26.629 43.603 27.167 44.131 C 27.705 44.658 28.232 45.257 28.334 45.45 C 28.435 45.642 28.974 46.23 29.541 46.747 C 30.11 47.275 30.566 47.772 30.566 47.873 C 30.566 47.975 30.465 48.147 30.333 48.269 C 30.12 48.462 29.988 48.493 29.115 48.493 C 28.01 48.493 27.157 48.644 26.872 48.888 C 26.203 49.466 26.264 50.906 26.984 51.545 L 27.359 51.87 L 28.273 51.778 C 29.673 51.657 34.503 51.687 35.974 51.83 C 37.547 51.981 38.045 51.92 38.471 51.535 C 38.775 51.251 38.786 51.221 38.786 50.379 C 38.786 48.878 38.633 48.725 36.898 48.553 C 35.538 48.421 35.842 48.655 34.117 46.464 C 33.57 45.764 32.626 44.658 32.017 44.009 C 31.419 43.36 30.85 42.752 30.769 42.66 C 30.688 42.559 30.393 42.316 30.11 42.113 C 29.836 41.909 29.491 41.575 29.359 41.362 C 29.227 41.159 29.034 40.987 28.932 40.987 C 28.821 40.987 28.669 40.844 28.577 40.652 C 28.486 40.48 27.644 39.547 26.71 38.603 C 25.777 37.65 24.934 36.737 24.854 36.574 C 24.772 36.402 24.326 35.936 23.879 35.52 C 23.058 34.779 22.875 34.495 23.006 34.089 C 23.169 33.562 24.681 32.203 27.522 30.012 C 27.999 29.647 28.77 28.988 29.247 28.552 C 30.028 27.831 32.19 26.188 32.778 25.884 C 32.9 25.813 33.58 25.691 34.28 25.61 C 36.36 25.367 36.654 25.143 36.654 23.804 C 36.654 23.054 36.634 22.953 36.391 22.699 L 36.127 22.415 L 32.666 22.446 C 29.846 22.466 28.974 22.435 27.978 22.294 C 26.254 22.05 25.594 22.253 25.31 23.094 C 25.128 23.642 25.29 24.15 25.767 24.545 C 26.132 24.849 26.447 24.981 27.654 25.316 C 27.978 25.408 28.273 25.55 28.303 25.631 C 28.395 25.864 27.826 26.391 26.507 27.325 C 24.701 28.592 24.102 29.089 23.605 29.738 C 23.281 30.164 22.976 30.428 22.571 30.631 C 22.256 30.793 21.789 31.138 21.535 31.402 C 21.282 31.665 20.876 32.02 20.623 32.193 C 20.368 32.365 19.851 32.812 19.455 33.187 C 18.228 34.363 14.879 36.585 14.463 36.503 C 14.037 36.422 13.986 35.895 13.955 31.624 C 13.945 28.349 13.905 27.446 13.773 26.777 C 13.681 26.33 13.631 25.894 13.661 25.813 C 13.763 25.539 14.24 25.469 16.137 25.458 C 17.852 25.448 18.065 25.428 18.37 25.245 C 18.836 24.951 18.897 24.788 18.897 23.663 C 18.897 22.801 18.867 22.638 18.705 22.487 C 18.522 22.324 18.106 22.303 13.499 22.283 Z M 72.28 12.699 C 72.006 12.546 70.423 12.577 69.632 12.749 C 68.769 12.942 67.836 13.388 67.308 13.855 C 67.085 14.058 66.75 14.524 66.567 14.889 C 66.11 15.822 66.121 16.613 66.639 18.571 C 67.106 20.357 67.146 21.32 66.791 22.253 C 66.517 22.973 66.142 23.44 65.837 23.44 C 65.705 23.44 65.39 23.257 65.136 23.034 C 64.406 22.385 64.183 21.422 64.507 20.336 C 64.589 20.062 64.659 19.798 64.659 19.748 C 64.659 19.697 64.366 19.687 64 19.707 C 63.493 19.748 63.128 19.869 62.366 20.245 C 61.545 20.64 61.24 20.863 60.5 21.593 C 59.13 22.953 58.602 24.241 58.693 26.036 C 58.724 26.777 58.795 27.06 59.038 27.598 C 59.556 28.704 60.905 29.972 62.022 30.408 C 62.387 30.56 62.417 30.55 63.27 30.144 C 64.863 29.383 67.278 28.927 68.922 29.069 C 70.565 29.211 72.25 29.536 73.386 29.921 C 74.026 30.134 74.786 30.347 75.07 30.388 C 75.7 30.469 76.603 30.316 77.232 30.012 C 77.872 29.718 79.068 28.48 79.403 27.791 C 79.677 27.223 79.88 26.077 79.88 25.134 C 79.87 23.927 79.281 22.222 78.592 21.422 L 78.287 21.067 L 78.024 21.644 C 77.506 22.78 76.41 23.642 75.273 23.804 C 74.807 23.865 74.776 23.856 74.848 23.683 C 74.898 23.572 74.948 23.125 74.98 22.679 C 75.081 21.188 74.482 19.656 73.132 17.973 C 72.209 16.827 71.712 16.025 71.448 15.274 C 71.114 14.312 71.225 13.916 72.016 13.216 C 72.453 12.831 72.473 12.8 72.28 12.699 Z M 69.287 14.849 C 69.317 14.869 69.399 15.143 69.479 15.467 C 69.754 16.512 70.453 17.719 71.692 19.271 C 72.026 19.697 72.463 20.386 72.666 20.802 C 73.062 21.624 73.112 22.182 72.93 23.653 C 72.868 24.22 72.879 24.373 73.072 24.738 C 73.376 25.326 73.964 25.701 74.685 25.752 C 75.415 25.803 76.451 25.559 77.242 25.164 C 77.577 25.002 77.872 24.86 77.912 24.86 C 78.054 24.86 77.84 26.543 77.638 26.959 C 77.252 27.77 76.227 28.511 75.497 28.511 C 75.395 28.511 74.675 28.308 73.894 28.055 C 70.068 26.827 66.294 26.827 63.208 28.065 L 62.316 28.42 L 61.961 28.156 C 61.392 27.72 61.098 27.375 60.835 26.807 C 60.296 25.671 60.723 23.997 61.819 22.932 C 62.336 22.435 62.631 22.294 62.631 22.557 C 62.631 22.882 63.28 23.957 63.737 24.383 C 65.451 25.986 67.379 25.579 68.404 23.399 C 69.124 21.867 69.145 20.63 68.515 18.105 C 68.1 16.451 68.09 16.35 68.222 15.924 C 68.323 15.609 68.495 15.386 68.81 15.153 C 69.054 14.96 69.266 14.829 69.287 14.849 Z M 71.407 33.887 C 72.463 34.252 73.315 34.79 73.477 35.185 C 73.539 35.337 73.853 35.743 74.178 36.087 C 74.959 36.929 76.055 38.755 75.974 39.08 C 75.934 39.212 75.984 39.871 76.065 40.53 C 76.156 41.199 76.227 42.244 76.227 42.863 C 76.227 44.05 76.197 44.161 75.588 45.013 C 75.395 45.297 75.283 45.601 75.233 46.078 C 75.142 46.849 75.07 46.93 73.741 47.823 C 72.97 48.34 72.858 48.391 71.58 48.644 C 70.301 48.898 70.129 48.918 68.485 48.848 L 66.74 48.776 L 65.603 48.026 C 64.345 47.194 63.99 46.808 63.503 45.734 C 62.925 44.486 62.793 43.655 62.874 41.788 C 62.935 40.611 62.915 40.094 62.823 39.84 C 62.711 39.536 62.721 39.445 62.904 39.151 C 63.016 38.958 63.168 38.482 63.24 38.096 C 63.402 37.163 63.655 36.605 64.02 36.341 C 64.183 36.219 64.569 35.804 64.863 35.418 C 65.157 35.023 65.543 34.637 65.715 34.556 C 67.227 33.846 67.897 33.613 68.515 33.592 C 68.871 33.583 69.196 33.552 69.226 33.521 C 69.348 33.39 70.555 33.592 71.407 33.887 Z" style="fill: rgb(255, 255, 255);"></path>
</svg>