<?xml version="1.0" standalone="no"?>
<!DOCTYPE svg PUBLIC "-//W3C//DTD SVG 20010904//EN"
 "http://www.w3.org/TR/2001/REC-SVG-20010904/DTD/svg10.dtd">
<svg version="1.0" xmlns="http://www.w3.org/2000/svg"
 width="1262.000000pt" height="1262.000000pt" viewBox="0 0 1262.000000 1262.000000"
 preserveAspectRatio="xMidYMid meet">
<metadata>
Created by potrace 1.14, written by Peter Selinger 2001-2017
</metadata>
<g transform="translate(0.000000,1262.000000) scale(0.100000,-0.100000)"
fill="#000000" stroke="none">
<path d="M0 6310 l0 -6310 6310 0 6310 0 0 6310 0 6310 -6310 0 -6310 0 0
-6310z m7071 4999 c19 -10 17 -13 -26 -51 -78 -69 -89 -108 -56 -203 26 -74
75 -153 166 -266 133 -166 192 -317 182 -464 -3 -44 -8 -88 -13 -99 -7 -17 -4
-18 42 -12 112 16 220 101 271 213 l26 57 30 -35 c68 -79 126 -247 127 -366 0
-93 -20 -206 -47 -262 -33 -68 -151 -190 -214 -219 -62 -30 -151 -45 -213 -37
-28 4 -103 25 -166 46 -112 38 -278 70 -440 84 -162 14 -400 -31 -557 -106
-84 -40 -87 -41 -123 -26 -110 43 -243 168 -294 277 -24 53 -31 81 -34 154 -9
177 43 304 178 438 73 72 103 94 184 133 75 37 111 49 161 53 36 2 65 1 65 -4
0 -5 -7 -31 -15 -58 -32 -107 -10 -202 62 -266 25 -22 56 -40 69 -40 30 0 67
46 94 117 35 92 31 187 -15 363 -51 193 -52 271 -7 363 18 36 51 82 73 102 52
46 144 90 229 109 78 17 234 20 261 5z m-5793 -945 c454 -2 495 -4 513 -20 16
-15 19 -31 19 -116 0 -111 -6 -127 -52 -156 -30 -18 -51 -20 -220 -21 -187 -1
-234 -8 -244 -35 -3 -8 2 -51 11 -95 13 -66 17 -155 18 -478 3 -421 8 -473 50
-481 41 -8 371 211 492 327 39 37 90 81 115 98 25 17 65 52 90 78 25 26 71 60
102 76 40 20 70 46 102 88 49 64 108 113 286 238 130 92 186 144 177 167 -3 8
-32 22 -64 31 -119 33 -150 46 -186 76 -47 39 -63 89 -45 143 28 83 93 103
263 79 98 -14 184 -17 462 -15 l341 3 26 -28 c24 -25 26 -35 26 -109 0 -132
-29 -154 -234 -178 -69 -8 -136 -20 -148 -27 -58 -30 -271 -192 -348 -263 -47
-43 -123 -108 -170 -144 -280 -216 -429 -350 -445 -402 -13 -40 5 -68 86 -141
44 -41 88 -87 96 -104 8 -16 91 -106 183 -200 92 -93 175 -185 184 -202 9 -19
24 -33 35 -33 10 0 29 -17 42 -37 13 -21 47 -54 74 -74 28 -20 57 -44 65 -54
8 -9 64 -69 123 -133 60 -64 153 -173 207 -242 170 -216 140 -193 274 -206
171 -17 186 -32 186 -180 0 -83 -1 -86 -31 -114 -42 -38 -91 -44 -246 -29
-145 14 -621 17 -759 5 l-90 -9 -37 32 c-71 63 -77 205 -11 262 28 24 112 39
221 39 86 0 99 3 120 22 13 12 23 29 23 39 0 10 -45 59 -101 111 -56 51 -109
109 -119 128 -10 19 -62 78 -115 130 -53 52 -106 113 -117 134 -11 22 -54 71
-95 110 -41 39 -102 105 -134 147 -32 42 -76 91 -97 108 -22 17 -67 71 -100
120 -74 107 -121 151 -163 151 -40 0 -60 -11 -145 -84 -40 -34 -110 -81 -156
-105 -45 -24 -100 -58 -120 -77 -20 -18 -55 -42 -78 -54 -22 -11 -40 -25 -40
-30 0 -5 -12 -21 -27 -34 l-27 -26 -4 -282 c-1 -156 1 -325 5 -377 12 -139 4
-135 296 -141 224 -5 234 -6 276 -30 94 -53 125 -186 60 -256 -20 -21 -31 -24
-99 -24 -42 0 -81 -5 -87 -11 -8 -8 -34 -6 -94 6 -210 43 -466 52 -831 31
-380 -23 -378 -24 -378 120 0 100 20 164 55 178 9 3 104 6 210 6 174 0 194 2
201 18 5 9 9 264 10 565 1 301 6 555 10 565 8 18 26 308 25 402 0 30 -2 190
-3 355 -3 262 -5 304 -20 326 -16 26 -19 26 -170 32 -234 9 -248 17 -256 149
-5 92 8 132 52 160 27 17 41 18 116 12 47 -4 307 -8 578 -10z m5597 -853 c435
-91 499 -118 660 -279 58 -57 94 -105 129 -168 186 -340 215 -676 89 -1044
-59 -172 -66 -186 -111 -210 -20 -11 -94 -64 -163 -118 -145 -111 -248 -173
-346 -207 -117 -41 -189 -47 -424 -37 -248 12 -308 26 -399 96 -30 23 -78 57
-106 74 -138 87 -353 377 -368 496 -3 19 -12 48 -20 64 -21 41 -40 282 -33
412 4 58 15 141 26 185 10 44 26 112 35 150 22 94 55 156 136 257 146 181 292
273 510 319 92 19 313 25 385 10z m1677 -11 c58 -16 78 -50 78 -129 0 -36 -5
-99 -10 -138 -11 -85 -7 -101 28 -110 21 -5 30 -1 46 22 12 16 55 63 96 105
85 86 204 164 325 212 73 29 92 32 213 36 228 7 431 -28 482 -83 14 -15 50
-40 81 -57 48 -25 70 -47 134 -134 84 -114 97 -121 152 -81 52 37 172 136 244
202 159 143 305 177 609 141 165 -20 224 -43 356 -139 62 -45 113 -88 114 -95
0 -8 22 -46 50 -85 54 -79 70 -129 94 -292 12 -83 13 -163 6 -475 -5 -206 -12
-392 -16 -413 -11 -63 7 -77 183 -147 87 -34 164 -67 172 -74 25 -20 51 -90
51 -139 0 -57 -22 -104 -55 -117 -47 -18 -144 -22 -251 -10 -60 6 -215 13
-344 15 -189 3 -245 1 -288 -12 -66 -18 -132 -11 -168 20 -32 28 -41 90 -25
169 18 86 36 97 196 124 74 12 139 25 144 28 5 4 12 25 16 49 4 23 12 48 19
56 7 10 11 90 12 250 0 179 4 247 15 281 11 32 13 60 7 95 -4 28 -12 97 -18
154 -7 65 -16 109 -25 118 -8 8 -15 23 -15 32 0 10 -16 51 -36 90 -53 106 -98
128 -324 156 -69 9 -152 23 -184 31 l-60 14 -30 -28 c-17 -16 -63 -48 -102
-70 -39 -23 -77 -48 -84 -57 -8 -9 -40 -30 -72 -46 -45 -22 -72 -47 -119 -107
-94 -117 -104 -146 -103 -277 0 -60 5 -148 11 -195 5 -47 6 -103 2 -125 -5
-22 -8 -108 -9 -191 l0 -150 34 -37 c29 -31 40 -37 77 -38 24 0 80 -1 124 -2
93 -2 129 -19 151 -72 29 -70 11 -211 -31 -244 -21 -16 -45 -17 -272 -15 -136
1 -275 5 -308 9 -43 5 -95 1 -184 -14 -152 -26 -233 -27 -286 -2 -55 25 -63
37 -84 134 -18 82 -18 87 -1 115 40 66 123 102 234 102 106 0 151 38 160 134
7 72 26 430 30 562 2 61 9 120 15 132 18 33 13 181 -7 223 -20 42 -149 165
-212 202 -82 48 -312 54 -457 12 -40 -12 -72 -30 -104 -60 -26 -25 -66 -49
-96 -59 -61 -20 -215 -135 -260 -194 -19 -25 -36 -63 -42 -94 -15 -77 -16
-229 -2 -333 6 -49 11 -180 10 -290 l-2 -200 40 -17 c22 -10 101 -25 174 -34
143 -18 165 -28 195 -86 31 -59 10 -161 -46 -219 -46 -48 -96 -55 -272 -38
-173 17 -456 17 -634 1 -200 -18 -211 -12 -221 131 -10 149 21 182 186 196
110 10 122 14 170 64 45 47 52 89 45 277 -5 116 -2 181 10 261 10 67 16 171
16 281 0 96 5 200 10 231 13 67 6 86 -45 117 -30 18 -59 23 -188 32 -83 5
-157 11 -163 13 -24 7 -54 92 -60 166 -6 92 4 114 71 148 45 22 66 25 225 32
131 5 191 12 240 27 111 35 114 35 162 22z m-3872 -15 c46 -24 55 -75 35 -195
-21 -125 -18 -154 15 -158 28 -3 138 58 175 98 73 79 105 119 105 134 0 9 8
16 18 16 10 0 36 13 58 30 59 42 201 83 299 84 75 1 86 -2 170 -42 126 -61
151 -83 191 -165 39 -82 42 -120 18 -234 -19 -95 -43 -142 -101 -204 -57 -61
-113 -84 -189 -76 -66 7 -111 32 -219 123 -147 123 -177 123 -347 2 -40 -29
-104 -73 -142 -98 l-68 -45 0 -360 c0 -198 0 -393 -1 -433 -2 -70 -1 -75 27
-99 28 -23 34 -25 90 -17 70 9 89 9 247 -4 136 -11 170 -26 201 -85 29 -55 30
-164 4 -220 -33 -68 -85 -80 -229 -52 -43 8 -129 15 -190 15 -62 0 -128 5
-148 10 -25 7 -129 5 -340 -6 -359 -18 -362 -18 -397 0 -84 44 -128 169 -91
257 25 61 150 95 309 84 95 -6 95 -6 121 22 51 54 53 64 43 237 -5 89 -7 215
-4 281 8 205 6 317 -9 397 -14 75 -14 80 8 142 33 94 25 104 -119 142 -36 10
-119 20 -185 23 -66 3 -127 10 -135 15 -41 24 -60 52 -70 102 -14 67 -1 113
40 147 29 25 39 27 210 47 186 22 226 30 335 64 123 39 216 46 265 21z m-2027
-2338 c32 -9 102 -40 155 -70 86 -49 111 -58 226 -81 71 -14 139 -26 151 -26
44 0 119 48 154 100 l34 50 147 0 c183 0 181 1 210 -151 16 -81 20 -146 20
-295 0 -180 -1 -195 -26 -265 -22 -61 -27 -93 -28 -183 l-1 -108 -36 -19 c-45
-23 -174 -59 -210 -59 -55 0 -60 7 -53 70 10 92 -32 165 -139 239 -73 49 -400
209 -493 240 -127 42 -269 69 -500 92 l-201 20 -131 -35 c-237 -64 -369 -121
-467 -202 -197 -161 -217 -494 -41 -682 70 -74 144 -109 305 -143 81 -16 159
-39 186 -54 47 -25 52 -25 265 -25 211 0 218 -1 266 -25 45 -23 60 -25 180
-25 189 0 336 -26 623 -111 l114 -33 158 -185 c175 -206 234 -300 275 -440 80
-275 71 -552 -26 -779 -103 -243 -323 -481 -628 -680 -106 -69 -167 -95 -307
-127 -55 -12 -172 -42 -260 -65 -245 -64 -287 -64 -560 2 l-220 53 -222 123
c-417 232 -471 242 -532 99 -36 -83 -90 -156 -138 -184 -41 -24 -51 -25 -131
-20 -48 2 -109 13 -137 24 -45 17 -50 22 -62 63 -23 80 -63 589 -63 805 0 66
-5 168 -12 227 -16 156 -1 182 124 214 76 20 218 14 291 -11 60 -21 69 -39
101 -190 29 -137 47 -178 117 -263 94 -117 247 -224 430 -304 173 -75 499
-178 598 -189 311 -35 756 113 1008 336 68 60 153 173 153 205 0 14 17 90 38
170 37 140 38 148 25 194 -39 132 -258 251 -598 326 -55 12 -125 31 -155 42
-32 11 -101 23 -165 28 -179 13 -674 101 -873 156 -270 73 -466 179 -614 332
-124 129 -209 275 -277 479 -76 230 -63 388 56 643 34 73 56 102 153 203 203
212 366 325 577 400 110 40 403 90 643 111 107 9 466 -3 523 -17z m8019 0 c31
-8 101 -39 155 -70 88 -49 112 -58 232 -82 86 -17 146 -24 170 -20 50 9 100
46 136 100 l30 45 146 0 c181 0 180 0 209 -145 16 -77 20 -138 20 -293 0 -182
-2 -203 -25 -275 -20 -62 -25 -99 -25 -181 0 -71 -4 -107 -13 -114 -26 -22
-174 -65 -227 -66 l-55 -1 -5 80 c-6 85 -8 90 -52 147 -40 51 -107 93 -324
202 -275 137 -394 170 -757 207 l-205 21 -146 -41 c-259 -72 -377 -128 -477
-226 -153 -149 -179 -408 -60 -592 75 -117 164 -167 366 -207 72 -15 152 -37
179 -51 48 -24 55 -25 263 -25 208 0 215 -1 263 -25 45 -23 60 -25 184 -25
158 0 342 -30 531 -86 66 -20 138 -41 160 -47 34 -10 63 -38 201 -199 217
-254 265 -347 309 -601 21 -116 20 -313 0 -413 -62 -298 -244 -553 -570 -797
-192 -144 -240 -165 -570 -248 -379 -95 -389 -96 -660 -31 -115 28 -222 55
-237 61 -15 5 -108 56 -208 111 -261 146 -361 193 -426 198 -69 6 -83 -6 -130
-107 -42 -91 -91 -153 -140 -176 -47 -22 -185 -16 -258 11 -47 18 -51 22 -62
68 -25 95 -48 398 -64 821 -5 138 -12 259 -16 271 -3 12 -1 40 6 62 8 31 19
46 43 58 87 46 230 56 347 26 81 -21 92 -39 126 -197 28 -135 47 -176 121
-268 136 -166 330 -276 721 -407 245 -82 333 -97 490 -81 259 27 487 105 685
234 159 103 297 258 297 333 0 18 16 91 35 161 42 157 38 186 -37 268 -85 93
-264 171 -553 240 -77 19 -165 41 -195 49 -30 9 -81 16 -113 16 -64 0 -456 63
-680 110 -622 129 -920 364 -1081 850 -80 240 -67 393 53 645 41 86 61 114
145 202 201 211 387 340 589 408 124 41 363 82 642 109 95 9 462 -3 517 -17z
m-5101 -107 c19 -6 46 -22 60 -36 21 -23 24 -36 27 -124 6 -164 -22 -203 -183
-256 -44 -15 -96 -35 -115 -44 -69 -35 -120 -104 -134 -183 -16 -89 41 -379
105 -534 17 -41 74 -145 127 -231 127 -210 166 -291 191 -392 21 -85 51 -153
116 -266 19 -34 66 -151 104 -260 102 -298 116 -329 195 -434 132 -177 171
-210 246 -210 52 0 87 18 133 69 75 83 126 213 242 610 84 289 78 276 176 441
75 127 113 212 194 427 108 287 191 572 216 741 26 187 -10 226 -277 296 -150
40 -225 75 -257 117 -27 38 -25 115 7 185 22 47 32 58 72 75 52 23 76 23 444
-1 146 -10 276 -10 615 -1 555 16 648 6 695 -71 15 -25 20 -50 20 -105 0 -67
-2 -73 -30 -96 -39 -33 -103 -56 -291 -107 -204 -55 -273 -77 -340 -111 -100
-50 -174 -154 -254 -358 -21 -52 -61 -136 -90 -186 -98 -169 -125 -231 -125
-282 0 -42 -8 -60 -64 -144 -73 -109 -85 -140 -116 -294 -24 -118 -34 -144
-143 -384 -66 -146 -71 -162 -78 -251 -12 -150 -77 -338 -244 -710 -161 -358
-166 -371 -186 -480 -26 -140 -33 -157 -91 -257 -60 -102 -82 -162 -98 -268
-10 -69 -24 -105 -105 -265 -152 -303 -301 -670 -292 -719 7 -33 -27 -149 -65
-224 -109 -219 -339 -434 -535 -502 -104 -37 -158 -40 -249 -17 -94 24 -408
82 -446 82 -57 0 -118 108 -137 241 -13 94 -1 143 45 190 35 35 46 40 117 49
96 14 281 76 404 136 294 145 476 356 689 800 41 85 74 158 74 163 0 5 9 38
20 73 14 47 34 81 70 122 53 61 64 102 38 149 -6 12 -17 50 -24 84 -10 48 -41
108 -132 265 -653 1116 -902 1643 -951 2006 -11 84 -23 106 -87 159 -106 88
-245 364 -289 575 -8 38 -15 81 -15 96 0 25 -13 33 -169 109 -98 47 -187 97
-210 119 -53 47 -110 162 -118 236 -8 78 10 126 53 144 46 19 391 35 784 35
173 0 347 4 385 8 103 12 235 12 276 1z"/>
<path d="M6729 11067 c-31 -23 -48 -45 -58 -76 -13 -42 -12 -52 29 -215 62
-249 60 -371 -11 -522 -101 -215 -291 -255 -460 -97 -45 42 -109 148 -109 180
0 26 -29 12 -80 -37 -108 -105 -150 -270 -97 -382 26 -56 55 -90 111 -133 l35
-26 88 35 c304 122 676 122 1053 1 77 -25 148 -45 158 -45 72 0 173 73 211
153 20 41 41 207 27 207 -4 0 -33 -14 -66 -30 -78 -39 -180 -63 -252 -58 -71
5 -129 42 -159 100 -19 36 -20 51 -14 107 18 145 13 200 -26 281 -20 41 -63
109 -96 151 -122 153 -191 272 -218 375 -8 32 -16 59 -19 61 -2 2 -23 -11 -47
-30z"/>
<path d="M6770 9256 c-3 -3 -35 -6 -70 -7 -61 -2 -127 -25 -276 -95 -17 -8
-55 -46 -84 -85 -29 -38 -67 -79 -83 -91 -36 -26 -61 -81 -77 -173 -7 -38 -22
-85 -33 -104 -18 -29 -19 -38 -8 -68 9 -25 11 -76 5 -192 -8 -184 5 -266 62
-389 48 -106 83 -144 207 -226 l112 -74 172 -7 c162 -7 179 -5 305 20 126 25
137 30 213 81 131 88 138 96 147 172 5 47 16 77 35 105 60 84 63 95 63 212 0
61 -7 164 -16 230 -8 65 -13 130 -9 143 8 32 -100 212 -177 295 -32 34 -63 74
-69 89 -16 39 -100 92 -204 128 -84 29 -203 49 -215 36z"/>
</g>
</svg>
